<svg width="455" height="313" viewBox="0 0 455 313" fill="none" xmlns="http://www.w3.org/2000/svg">
<path d="M364.319 104.655L364.331 104.657C365.115 104.759 365.902 104.952 366.645 105.222L366.657 105.226C372.736 107.419 377.756 115.214 380.332 126.95C382.844 138.395 382.722 152.376 379.667 164.88C376.62 177.349 371.313 185.68 365.191 190.527C359.12 195.332 352.018 196.909 344.802 195.518L344.799 195.517C344.342 195.43 343.888 195.331 343.431 195.219C342.973 195.107 342.524 194.986 342.079 194.853L342.076 194.852C335.031 192.759 329.456 188.085 326.286 181.022C323.088 173.898 322.22 164.058 325.267 151.588C328.322 139.085 334.661 126.622 342.168 117.625C349.865 108.399 357.913 103.797 364.319 104.655Z" stroke="black" stroke-width="7"/>
<path d="M340.855 198.152L364.56 101.131C365.618 101.272 366.675 101.53 367.679 101.893L343.974 198.914C343.45 198.813 342.929 198.699 342.405 198.571C341.881 198.443 341.367 198.304 340.855 198.152Z" fill="black"/>
<path d="M356.669 154.49C355.872 157.751 353.431 158.935 351.991 158.583C350.551 158.231 348.931 156.056 349.728 152.794C350.525 149.533 352.966 148.35 354.406 148.701C355.845 149.053 357.465 151.229 356.669 154.49Z" stroke="black" stroke-width="5"/>
<path d="M43.5625 139.531C43.0625 141.312 42.8125 143.141 42.8125 145.016C42.8125 146.891 43.0625 148.594 43.5625 150.125C44.0938 151.656 45.1562 153.125 46.75 154.531C50.375 157.719 56.6719 160.25 65.6406 162.125C71.4219 163.375 75.7969 164.766 78.7656 166.297C81.7656 167.797 84.0938 169.375 85.75 171.031C87.4375 172.656 88.5156 174.609 88.9844 176.891C89.4219 175.609 89.6406 174.156 89.6406 172.531C89.6406 170.875 89.3125 169.328 88.6562 167.891C88.0312 166.453 87.1875 165.203 86.125 164.141C85.0938 163.047 83.8906 162.094 82.5156 161.281C81.1406 160.469 79.7188 159.781 78.25 159.219C76.25 158.438 73.8438 157.703 71.0312 157.016C68.2188 156.328 65.8281 155.734 63.8594 155.234C61.8906 154.734 59.9688 154.172 58.0938 153.547C56.2188 152.922 54.4375 152.203 52.75 151.391C51.0625 150.578 49.5625 149.609 48.25 148.484C45.4688 146.078 43.9062 143.094 43.5625 139.531ZM41.7344 175.344C49.0156 184.688 58.0781 189.359 68.9219 189.359C75.6094 189.359 80.2812 187.719 82.9375 184.438C83.9688 183.219 84.4844 181.797 84.4844 180.172C84.4844 178.547 84.125 177.188 83.4062 176.094C82.6875 174.969 81.75 173.969 80.5938 173.094C79.4375 172.219 78.125 171.453 76.6562 170.797C75.2188 170.109 73.7656 169.516 72.2969 169.016C69.9531 168.203 67.5469 167.547 65.0781 167.047C62.6094 166.547 60.2812 166.016 58.0938 165.453C55.9062 164.859 53.8281 164.156 51.8594 163.344C49.8906 162.531 48.0625 161.578 46.375 160.484C44.6875 159.391 43.2188 158.094 41.9688 156.594C39.3438 153.438 38.0312 149.453 38.0312 144.641C38.0312 137.484 40.6875 131.812 46 127.625C50.875 123.781 56.7812 121.859 63.7188 121.859C67.625 121.859 71.9375 122.656 76.6562 124.25C81.2188 125.812 84.375 127.609 86.125 129.641C86.8438 127.703 87.8594 125.344 89.1719 122.562C89.7031 121.656 90.375 121.203 91.1875 121.203C92.0312 121.203 92.6875 121.469 93.1562 122C93.625 122.5 93.8594 123 93.8594 123.5C93.8594 123.969 93.4062 125.141 92.5 127.016C91.5938 128.891 90.6094 131.531 89.5469 134.938C88.5156 138.312 87.7812 141.734 87.3438 145.203C87.2812 145.828 87.0156 146.344 86.5469 146.75C86.1094 147.125 85.5469 147.312 84.8594 147.312C84.2031 147.312 83.6406 147.047 83.1719 146.516C82.7031 145.984 82.4688 145.453 82.4688 144.922V144.641C82.8438 141.328 83.5156 138.062 84.4844 134.844C83.9219 133.125 81.1875 131.344 76.2812 129.5C71.4062 127.625 67.0625 126.688 63.25 126.688C56.6875 126.688 52.2031 128.719 49.7969 132.781C48.9531 134.188 48.5156 135.891 48.4844 137.891C48.7969 142.453 51.7031 145.844 57.2031 148.062C59.8594 149.188 62.4844 150.031 65.0781 150.594C67.6719 151.125 70.0625 151.656 72.25 152.188C74.4688 152.688 77.0156 153.406 79.8906 154.344C82.7656 155.281 85.2812 156.516 87.4375 158.047C92.1875 161.391 94.5625 166.297 94.5625 172.766C94.5625 179.203 91.7656 184.5 86.1719 188.656C81.0781 192.406 75.3594 194.281 69.0156 194.281C57.9531 194.281 48.7344 190.344 41.3594 182.469V183.594C41.3594 185.562 41.4219 187.516 41.5469 189.453V189.641C41.5469 190.266 41.3281 190.812 40.8906 191.281C40.4844 191.75 39.9219 192 39.2031 192.031C38.5156 192.062 37.9375 191.859 37.4688 191.422C37 190.984 36.7344 190.344 36.6719 189.5C36.5469 187.812 36.4844 185.625 36.4844 182.938C36.4844 177.969 37.0625 172.594 38.2188 166.812C38.5625 165.469 39.3594 164.797 40.6094 164.797C41.3281 164.797 41.9219 165.078 42.3906 165.641C42.8594 166.172 43.0938 166.594 43.0938 166.906V167.469C43.0938 167.562 43.0312 167.812 42.9062 168.219C42.8125 168.625 42.7031 169.141 42.5781 169.766C42.4844 170.359 42.375 170.938 42.25 171.5C42.1562 172.156 41.9844 173.438 41.7344 175.344ZM149.312 148.391H147.438C146.5 148.391 145.312 148.328 143.875 148.203L142.656 187.625C144.969 187.25 147.266 187 149.547 186.875L150.297 148.297C149.953 148.359 149.625 148.391 149.312 148.391ZM141.766 143C143.453 143.25 146.25 143.375 150.156 143.375C154.062 143.375 157.766 142.938 161.266 142.062C161.984 142.062 162.578 142.328 163.047 142.859C163.516 143.359 163.75 143.906 163.75 144.5C163.75 145.094 163.562 145.625 163.188 146.094C162.844 146.562 162.234 146.891 161.359 147.078C160.516 147.234 159.547 147.391 158.453 147.547C157.359 147.672 156.281 147.812 155.219 147.969L154.469 186.781C157.188 186.781 159.156 186.859 160.375 187.016C162.375 187.266 163.375 188.109 163.375 189.547C163.375 190.328 163.109 190.938 162.578 191.375C162.078 191.844 161.547 192.078 160.984 192.078H160.703C153.797 191.234 147.109 191.547 140.641 193.016H140.125C139.469 193.016 138.891 192.766 138.391 192.266C137.891 191.797 137.641 191.25 137.641 190.625V190.531L137.922 181.953C133.891 189.328 128.672 193.016 122.266 193.016C116.734 193.016 112.594 190.531 109.844 185.562C107.656 181.531 106.562 176.781 106.562 171.312C106.562 162.844 108.156 155.109 111.344 148.109L102.906 147.875C102.219 147.812 101.641 147.562 101.172 147.125C100.734 146.656 100.516 146.094 100.516 145.438C100.516 144.781 100.75 144.219 101.219 143.75C101.688 143.25 102.281 143 103 143L115.375 143.281C116.062 143.375 116.625 143.656 117.062 144.125C117.531 144.562 117.766 145 117.766 145.438C117.766 146 117.641 146.531 117.391 147.031C115.297 149.125 113.562 154.625 112.188 163.531C111.688 166.781 111.438 169.391 111.438 171.359C111.438 173.328 111.594 175.312 111.906 177.312C112.25 179.281 112.828 181.062 113.641 182.656C115.484 186.312 118.328 188.141 122.172 188.141C126.016 188.141 129.375 186 132.25 181.719C135.125 177.5 137.188 171.641 138.438 164.141L139 145.297C139 144.609 139.266 144.062 139.797 143.656C140.328 143.219 140.891 143 141.484 143H141.766ZM188.875 150.312C187.688 150.5 185.531 150.594 182.406 150.594H182.031V185.047C182.625 184.984 183.203 184.953 183.766 184.953C183.766 184.953 185.469 184.953 188.875 184.953V150.312ZM215.078 160.719C215.266 160.312 215.359 159.75 215.359 159.031C215.359 158.312 215.016 157.625 214.328 156.969C213.672 156.281 212.859 155.938 211.891 155.938C210.922 155.938 210.094 156.281 209.406 156.969C208.75 157.625 208.422 158.312 208.422 159.031C208.422 159.75 208.516 160.312 208.703 160.719C208.891 161.125 209.141 161.5 209.453 161.844C210.109 162.531 210.922 162.875 211.891 162.875C213.359 162.875 214.422 162.156 215.078 160.719ZM193.844 150.781C196.969 146.438 201.094 144.266 206.219 144.266C210.469 144.391 213.906 145.688 216.531 148.156C219.219 150.625 220.562 153.859 220.562 157.859C220.562 160.516 219.781 162.812 218.219 164.75C216.594 166.75 214.484 167.75 211.891 167.75C209.578 167.75 207.609 166.938 205.984 165.312C204.359 163.688 203.547 161.719 203.547 159.406C203.547 157.125 204.359 155.156 205.984 153.5C207.609 151.812 209.578 150.969 211.891 150.969C212.047 150.969 212.188 150.984 212.312 151.016C212.469 151.047 212.625 151.062 212.781 151.062C211.125 149.781 209.172 149.141 206.922 149.141C204.672 149.141 202.891 149.516 201.578 150.266C200.266 150.984 199.141 151.906 198.203 153.031C197.297 154.125 196.562 155.328 196 156.641C195.438 157.922 195 159.125 194.688 160.25C194.125 162.156 193.844 163.609 193.844 164.609L193.75 185.422C194.844 185.516 195.938 185.656 197.031 185.844C198.156 186.031 199.156 186.219 200.031 186.406C201.656 186.719 202.469 187.547 202.469 188.891C202.469 189.578 202.203 190.156 201.672 190.625C201.141 191.062 200.578 191.281 199.984 191.281H199.516C194.297 190.312 189.625 189.828 185.5 189.828C181.438 189.828 176.797 190.312 171.578 191.281H171.109C170.391 191.281 169.812 191.047 169.375 190.578C168.938 190.078 168.719 189.531 168.719 188.938C168.719 187.594 169.359 186.75 170.641 186.406C171.734 186.219 172.828 186.031 173.922 185.844C175.016 185.656 176.094 185.516 177.156 185.422V150.5C173.031 150.312 170.625 150.078 169.938 149.797C169.312 149.734 168.797 149.484 168.391 149.047C168.016 148.578 167.828 148 167.828 147.312C167.828 146.594 168.094 146.016 168.625 145.578C169.188 145.141 169.75 144.922 170.312 144.922H170.641C170.859 145.141 172.516 145.328 175.609 145.484C178.734 145.609 181.031 145.672 182.5 145.672C185.969 145.672 188.25 145.547 189.344 145.297C190.438 145.047 191.219 144.922 191.688 144.922C192.188 144.922 192.672 145.188 193.141 145.719C193.609 146.219 193.844 146.781 193.844 147.406V150.781ZM252.297 124.484C248.172 125.484 245 127.75 242.781 131.281C240.812 134.375 239.828 138.156 239.828 142.625V184.859C240.391 184.797 240.969 184.766 241.562 184.766C242.656 184.766 243.609 184.766 244.422 184.766C245.234 184.766 245.906 184.797 246.438 184.859V144.078C246.438 134.922 248.391 128.391 252.297 124.484ZM258.625 191.188C253.469 190.156 248.375 189.641 243.344 189.641C238.344 189.641 233.266 190.156 228.109 191.188C227.391 191.188 226.797 190.938 226.328 190.438C225.859 189.906 225.625 189.344 225.625 188.75C225.625 187.312 226.297 186.5 227.641 186.312C230.266 185.75 232.688 185.391 234.906 185.234V149.234C232.281 149.234 230.109 149.188 228.391 149.094C226.672 149 225.578 148.719 225.109 148.25C224.672 147.781 224.453 147.219 224.453 146.562C224.453 145.875 224.703 145.297 225.203 144.828C225.703 144.328 226.281 144.078 226.938 144.078H227.031L234.906 144.359V142.625C234.906 135.625 236.812 130 240.625 125.75C244.531 121.375 249.797 119.188 256.422 119.188C262.016 119.188 266.578 120.984 270.109 124.578C273.391 127.922 274.969 131.859 274.844 136.391V136.484C274.844 137.141 274.594 137.703 274.094 138.172C273.625 138.641 273.047 138.875 272.359 138.875C271.672 138.875 271.094 138.641 270.625 138.172C270.188 137.703 269.922 137 269.828 136.062C269.766 135.094 269.531 133.969 269.125 132.688C268.75 131.406 268.203 130.25 267.484 129.219C265.859 126.875 263.766 125.703 261.203 125.703C256.391 125.703 253.328 129.344 252.016 136.625C251.609 138.875 251.406 141.359 251.406 144.078V144.359L259.281 144.078H259.375C260.062 144.078 260.641 144.312 261.109 144.781C261.578 145.219 261.828 145.797 261.859 146.516C261.891 147.203 261.672 147.781 261.203 148.25C260.734 148.719 259.656 149 257.969 149.094C256.281 149.188 254.094 149.234 251.406 149.234V185.141C254.25 185.484 256.391 185.797 257.828 186.078C259.266 186.328 260.156 186.688 260.5 187.156C260.844 187.594 261.016 188.172 261.016 188.891C261.016 189.578 260.75 190.141 260.219 190.578C259.688 190.984 259.156 191.188 258.625 191.188ZM275.312 129.359L275.078 156.453C275.078 164.422 275.141 169.797 275.266 172.578C275.422 175.328 275.891 177.688 276.672 179.656C277.453 181.625 278.531 183.344 279.906 184.812C282.812 187.906 286.484 189.516 290.922 189.641C285.359 186.266 282.484 180.062 282.297 171.031C282.172 167.469 282.109 163.25 282.109 158.375C282.109 153.469 282.125 148.422 282.156 143.234C282.188 138.047 282.203 133.078 282.203 128.328C280.266 128.797 277.969 129.141 275.312 129.359ZM313.094 165.875C313.094 163.406 312.875 161.109 312.438 158.984C312 156.828 311.281 154.953 310.281 153.359C308.188 149.922 304.938 148.203 300.531 148.203C297.031 148.203 293.844 149.797 290.969 152.984C288.562 155.578 287.234 157.875 286.984 159.875C286.984 168.688 287.281 174.297 287.875 176.703C288.469 179.078 289.234 180.969 290.172 182.375C292.172 185.375 295.047 186.875 298.797 186.875C303.484 186.875 307.125 184.625 309.719 180.125C311.969 176.219 313.094 171.469 313.094 165.875ZM270.391 172.906C270.266 169.438 270.203 162.594 270.203 152.375C270.203 142.156 270.266 134.547 270.391 129.547C267.797 129.547 265.688 129.438 264.062 129.219C262.438 129 261.438 128.859 261.062 128.797C260.688 128.703 260.312 128.422 259.938 127.953C259.562 127.484 259.375 127.016 259.375 126.547C259.375 126.047 259.469 125.641 259.656 125.328C259.812 125.016 260.016 124.75 260.266 124.531C260.766 124.094 261.172 123.875 261.484 123.875H262.047C262.109 123.875 262.172 123.891 262.234 123.922C262.266 123.953 262.5 124 262.938 124.062C263.375 124.125 263.969 124.188 264.719 124.25C266.656 124.469 268.625 124.578 270.625 124.578C275.625 124.578 280.094 124 284.031 122.844C284.281 122.719 284.625 122.656 285.062 122.656C285.531 122.656 286 122.922 286.469 123.453C286.969 123.953 287.219 124.516 287.219 125.141V125.234C287.219 125.266 287.203 125.969 287.172 127.344C287.141 128.688 287.109 130.5 287.078 132.781C287.078 135.031 287.062 137.641 287.031 140.609C287 143.578 286.984 146.672 286.984 149.891C289.203 146.766 292.328 144.719 296.359 143.75C297.672 143.438 299.438 143.281 301.656 143.281C303.906 143.281 306.141 143.875 308.359 145.062C310.578 146.219 312.406 147.812 313.844 149.844C316.625 153.844 318.016 159.172 318.016 165.828C318.016 174.078 315.75 180.859 311.219 186.172C306.438 191.766 300.031 194.562 292 194.562C286 194.562 280.969 192.578 276.906 188.609C272.781 184.609 270.609 179.375 270.391 172.906ZM404.922 188.328C402.797 186.484 401.734 184.172 401.734 181.391V127.625L395.031 129.547V175.812C395.031 182.625 397.125 186.625 401.312 187.812C402.5 188.125 403.703 188.297 404.922 188.328ZM406.656 143.656C410.531 143.531 414.422 143.312 418.328 143H418.516C419.203 143 419.781 143.25 420.25 143.75C420.719 144.219 420.953 144.766 420.953 145.391C420.953 146.016 420.734 146.578 420.297 147.078C419.891 147.547 419.375 147.812 418.75 147.875C413.969 148.25 409.938 148.484 406.656 148.578V181.391C406.656 183.266 407.609 184.594 409.516 185.375C410.047 185.594 410.656 185.703 411.344 185.703C412.062 185.703 412.688 185.484 413.219 185.047C413.781 184.578 414.25 184 414.625 183.312C415.125 182.406 415.531 181.344 415.844 180.125C416.312 178.219 417.203 177.266 418.516 177.266C419.234 177.266 419.812 177.547 420.25 178.109C420.719 178.641 420.953 179.188 420.953 179.75V180.266C420.047 184.422 418.266 187.641 415.609 189.922C412.953 192.172 409.672 193.297 405.766 193.297C398.703 193.297 393.938 190.406 391.469 184.625C390.5 182.375 390.016 179.438 390.016 175.812V148.484C388.609 148.391 387.188 148.297 385.75 148.203C384.344 148.109 383.125 148 382.094 147.875C380.219 147.688 379.281 146.859 379.281 145.391C379.281 144.672 379.547 144.094 380.078 143.656C380.641 143.219 381.203 143 381.766 143H381.953L390.016 143.562V127.625C390.016 127.094 390.188 126.609 390.531 126.172C390.875 125.703 391.312 125.391 391.844 125.234L403.562 122.094C403.688 122 404 121.953 404.5 121.953C405.031 121.953 405.516 122.219 405.953 122.75C406.422 123.281 406.656 123.859 406.656 124.484V143.656Z" fill="black"/>
</svg>
